HIERARCHY
ROOT Hips
{
	OFFSET 0.000000 0.000000 0.000000
	CHANNELS 6 Xposition Yposition Zposition Zrotation Yrotation Xrotation 
	JOINT LHipJoint
	{
		OFFSET 0.000000 0.000000 0.000000
		CHANNELS 3 Zrotation Yrotation Xrotation
		JOINT LeftUpLeg
		{
			OFFSET 1.363060 -1.794630 0.839290
			CHANNELS 3 Zrotation Yrotation Xrotation
			JOINT LeftLeg
			{
				OFFSET 2.448110 -6.726130 0.000000
				CHANNELS 3 Zrotation Yrotation Xrotation
				JOINT LeftFoot
				{
					OFFSET 2.562200 -7.039590 0.000000
					CHANNELS 3 Zrotation Yrotation Xrotation
					JOINT LeftToeBase
					{
						OFFSET 0.157640 -0.433110 2.322550
						CHANNELS 3 Zrotation Yrotation Xrotation
						End Site
						{
							OFFSET 0.000000 0.000000 0.000000
						}
					}
				}
			}
		}
	}
	JOINT RHipJoint
	{
		OFFSET 0.000000 0.000000 0.000000
		CHANNELS 3 Zrotation Yrotation Xrotation
		JOINT RightUpLeg
		{
			OFFSET -1.305520 -1.794630 0.839290
			CHANNELS 3 Zrotation Yrotation Xrotation
			JOINT RightLeg
			{
				OFFSET -2.542530 -6.985550 0.000000
				CHANNELS 3 Zrotation Yrotation Xrotation
				JOINT RightFoot
				{
					OFFSET -2.568260 -7.056230 0.000000
					CHANNELS 3 Zrotation Yrotation Xrotation
					JOINT RightToeBase
					{
						OFFSET -0.164730 -0.452590 2.363150
						CHANNELS 3 Zrotation Yrotation Xrotation
						End Site
						{
							OFFSET 0.000000 0.000000 0.000000
						}
					}
				}
			}
		}
	}
	JOINT LowerBack
	{
		OFFSET 0.000000 0.000000 0.000000
		CHANNELS 3 Zrotation Yrotation Xrotation
		JOINT Spine
		{
			OFFSET 0.028270 2.035590 -0.193380
			CHANNELS 3 Zrotation Yrotation Xrotation
			JOINT Spine1
			{
				OFFSET 0.056720 2.048850 -0.042750
				CHANNELS 3 Zrotation Yrotation Xrotation
				JOINT Neck
				{
					OFFSET 0.000000 0.000000 0.000000
					CHANNELS 3 Zrotation Yrotation Xrotation
					JOINT Neck1
					{
						OFFSET -0.054170 1.746240 0.172020
						CHANNELS 3 Zrotation Yrotation Xrotation
						JOINT Head
						{
							OFFSET 0.104070 1.761360 -0.123970
							CHANNELS 3 Zrotation Yrotation Xrotation
							End Site
							{
								OFFSET 0.000000 0.000000 0.000000
							}
						}
					}
				}
				JOINT LeftShoulder
				{
					OFFSET 0.000000 0.000000 0.000000
					CHANNELS 3 Zrotation Yrotation Xrotation
					JOINT LeftArm
					{
						OFFSET 3.362410 1.200890 -0.311210
						CHANNELS 3 Zrotation Yrotation Xrotation
						JOINT LeftForeArm
						{
							OFFSET 4.983000 -0.000000 -0.000000
							CHANNELS 3 Zrotation Yrotation Xrotation
							JOINT LeftHand
							{
								OFFSET 3.483560 -0.000000 -0.000000
								CHANNELS 3 Zrotation Yrotation Xrotation
								JOINT LeftFingerBase
								{
									OFFSET 0.000000 0.000000 0.000000
									CHANNELS 3 Zrotation Yrotation Xrotation
									JOINT LeftHandIndex1
									{
										OFFSET 0.715260 -0.000000 -0.000000
										CHANNELS 3 Zrotation Yrotation Xrotation
										End Site
										{
											OFFSET 0.000000 0.000000 0.000000
										}
									}
								}
								JOINT LThumb
								{
									OFFSET 0.000000 0.000000 0.000000
									CHANNELS 3 Zrotation Yrotation Xrotation
									End Site
									{
										OFFSET 0.000000 0.000000 0.000000
									}
								}
							}
						}
					}
				}
				JOINT RightShoulder
				{
					OFFSET 0.000000 0.000000 0.000000
					CHANNELS 3 Zrotation Yrotation Xrotation
					JOINT RightArm
					{
						OFFSET -3.136600 1.374050 -0.404650
						CHANNELS 3 Zrotation Yrotation Xrotation
						JOINT RightForeArm
						{
							OFFSET -5.241900 -0.000000 -0.000000
							CHANNELS 3 Zrotation Yrotation Xrotation
							JOINT RightHand
							{
								OFFSET -3.444170 -0.000000 -0.000000
								CHANNELS 3 Zrotation Yrotation Xrotation
								JOINT RightFingerBase
								{
									OFFSET 0.000000 0.000000 0.000000
									CHANNELS 3 Zrotation Yrotation Xrotation
									JOINT RightHandIndex1
									{
										OFFSET -0.622530 -0.000000 -0.000000
										CHANNELS 3 Zrotation Yrotation Xrotation
										End Site
										{
											OFFSET 0.000000 0.000000 0.000000
										}
									}
								}
								JOINT RThumb
								{
									OFFSET 0.000000 0.000000 0.000000
									CHANNELS 3 Zrotation Yrotation Xrotation
									End Site
									{
										OFFSET 0.000000 0.000000 0.000000
									}
								}
							}
						}
					}
				}
			}
		}
	}
}
MOTION
Frames: 12
Frame Time: 0.008333
3.398271 16.836949 3.780022 -11.039317 -86.285077 12.028972 -10.866865 1.637271 2.113786 -7.581028 13.553727 -27.611220 -1.898691 0.492762 25.178458 0.978316 5.586849 -5.245850 0.218000 -0.000000 -33.464300 10.901650 -1.094098 -2.162611 -3.083927 -26.491728 -25.185382 -0.567020 -3.583302 58.530571 -2.465409 -14.317031 3.107077 -2.654300 -0.000000 -68.246300 -4.349215 -2.312132 -2.643629 -1.157425 -2.072689 -2.751283 -4.221598 -2.126894 2.780224 10.258077 -17.863846 -11.490736 -0.786907 0.001853 -0.987213 0.000000 0.000000 0.000000 1.032154 24.445107 1.703873 -61.050264 11.593278 -2.818291 -3.162856 -42.881889 -0.029327 2.823513 10.583996 0.277914 -0.169154 -0.007022 -0.000000 0.000000 0.000000 0.000000 0.000000 0.000000 0.000000 8.208992 -12.442296 -0.824505 29.946800 11.876170 -11.795898 -0.012531 83.392646 -0.001704 0.572045 5.064462 0.030343 -0.063817 -0.386872 0.000000 0.000000 0.000000 0.000000 0.000000 0.000000 0.000000 
3.318717 16.867033 3.772438 -11.206514 -85.717312 12.267760 -10.874997 1.691755 2.194314 -7.390950 13.431241 -27.130715 -1.918175 0.445838 24.449546 0.918403 5.208457 -5.010345 0.227700 0.000000 -33.744900 10.850140 -1.123034 -2.121319 -2.765167 -26.636577 -25.011199 -0.363748 -3.467442 56.579477 -2.298241 -13.274739 2.032324 -2.244800 -0.000000 -68.937500 -4.375317 -2.422508 -2.754155 -1.180748 -2.186045 -2.772954 -4.326251 -2.237184 2.747647 10.429893 -18.069394 -11.457291 -0.791069 0.001041 -0.975846 0.000000 0.000000 0.000000 1.304748 24.150924 1.682370 -59.600096 11.206835 -1.998391 -3.054042 -44.474876 -0.029177 3.061087 10.341215 0.293285 -0.172198 -0.003663 -0.000000 0.000000 0.000000 0.000000 0.000000 0.000000 0.000000 8.316429 -12.645215 -0.895584 31.054829 11.097137 -11.573208 -0.017431 84.662549 -0.001196 0.621136 5.059508 0.032560 -0.062301 -0.387228 0.000000 0.000000 0.000000 0.000000 0.000000 0.000000 0.000000 
3.238924 16.898710 3.762056 -11.314565 -85.130159 12.456701 -10.881070 1.748566 2.290492 -7.187697 13.260214 -26.620823 -1.934085 0.392489 23.640769 0.863812 4.870390 -4.746396 0.240400 0.000000 -34.146100 10.797738 -1.161167 -2.070746 -2.445498 -26.778516 -24.738491 -0.145383 -3.334051 54.430780 -2.124963 -12.186133 1.062773 -1.882400 -0.000000 -69.749900 -4.404296 -2.524842 -2.890415 -1.205867 -2.291699 -2.799245 -4.435815 -2.339943 2.717688 10.596881 -18.280942 -11.419507 -0.792530 0.000335 -0.963045 0.000000 0.000000 0.000000 1.569585 23.859637 1.663793 -58.148832 10.802561 -1.289435 -2.946523 -46.017526 -0.029174 3.223040 10.164124 0.302850 -0.174896 -0.000297 -0.000000 0.000000 0.000000 0.000000 0.000000 0.000000 0.000000 8.402680 -12.846960 -0.970372 32.242851 10.214262 -11.337422 -0.025614 85.917184 -0.000633 0.677943 5.058437 0.035181 -0.060767 -0.387500 0.000000 0.000000 0.000000 0.000000 0.000000 0.000000 0.000000 
3.158881 16.931326 3.748967 -11.342124 -84.530940 12.576893 -10.883775 1.807668 2.402495 -6.979046 13.037070 -26.089867 -1.945686 0.333255 22.763723 0.816267 4.586623 -4.456281 0.256500 0.000000 -34.625600 10.745660 -1.206130 -2.009037 -2.129358 -26.909354 -24.377525 0.084296 -3.183987 52.113177 -1.954501 -11.107260 0.175422 -1.569300 -0.000000 -70.555401 -4.439732 -2.617585 -3.055091 -1.233461 -2.387814 -2.830929 -4.549744 -2.433434 2.689634 10.760263 -18.504039 -11.378842 -0.791521 -0.000266 -0.949199 0.000000 0.000000 0.000000 1.822397 23.564667 1.648378 -56.712517 10.394690 -0.731431 -2.839857 -47.515313 -0.029338 3.313062 10.064555 0.308011 -0.177158 0.003006 -0.000000 0.000000 0.000000 0.000000 0.000000 0.000000 0.000000 8.471520 -13.051499 -1.047812 33.495541 9.236215 -11.098187 -0.037189 87.154429 -0.000073 0.733073 5.068914 0.037905 -0.059110 -0.387925 0.000000 0.000000 0.000000 0.000000 0.000000 0.000000 0.000000 
3.078758 16.964291 3.733507 -11.350705 -83.924080 12.686767 -10.884241 1.867272 2.527440 -6.760958 12.769426 -25.540492 -1.952049 0.268932 21.829164 0.775693 4.358974 -4.139553 0.276400 0.000001 -35.158900 10.693597 -1.258161 -1.935558 -1.814028 -27.015974 -23.925867 0.320692 -3.017452 49.647599 -1.795218 -10.091056 -0.634739 -1.307400 0.000000 -71.274600 -4.476782 -2.699518 -3.245710 -1.262322 -2.473358 -2.867447 -4.666791 -2.516603 2.664178 10.917841 -18.737499 -11.337025 -0.787633 -0.000694 -0.934867 0.000000 0.000000 0.000000 2.062539 23.271867 1.636440 -55.313440 9.981740 -0.354540 -2.734380 -48.960543 -0.029642 3.339680 10.033513 0.309465 -0.178955 0.006350 -0.000000 0.000000 0.000000 0.000000 0.000000 0.000000 0.000000 8.518652 -13.256851 -1.127773 34.807939 8.168445 -10.873010 -0.052195 88.370196 0.000499 0.791906 5.095366 0.040832 -0.057548 -0.388674 0.000000 0.000000 0.000000 0.000000 0.000000 0.000000 0.000000 
2.998509 16.997023 3.715916 -11.339840 -83.317439 12.784645 -10.882626 1.927172 2.661943 -6.535377 12.469135 -24.977307 -1.953569 0.200762 20.848390 0.741251 4.183300 -3.795071 0.300100 0.000000 -35.709900 10.642495 -1.316019 -1.849161 -1.503213 -27.086425 -23.384864 0.557659 -2.834827 47.059056 -1.653398 -9.177831 -1.355876 -1.097100 0.000000 -71.858999 -4.515757 -2.770128 -3.460084 -1.292235 -2.547681 -2.908232 -4.785740 -2.588808 2.642071 11.068655 -18.981147 -11.295900 -0.780665 -0.000896 -0.920623 0.000000 0.000000 0.000000 2.287335 22.988605 1.627715 -53.966772 9.569383 -0.175364 -2.629776 -50.358700 -0.030058 3.311508 10.062944 0.308014 -0.180266 0.009779 -0.000000 0.000000 0.000000 0.000000 0.000000 0.000000 0.000000 8.543215 -13.462301 -1.209641 36.170453 7.023488 -10.675933 -0.070432 89.558667 0.001092 0.857884 5.140759 0.044361 -0.056239 -0.389884 0.000000 0.000000 0.000000 0.000000 0.000000 0.000000 0.000000 
2.918443 17.028854 3.696399 -11.297378 -82.720146 12.852521 -10.878900 1.987398 2.801464 -6.306934 12.151407 -24.404405 -1.951260 0.130428 19.835099 0.711549 4.050745 -3.422714 0.327700 -0.000000 -36.244001 10.593973 -1.377853 -1.749321 -1.203561 -27.109860 -22.757946 0.787515 -2.637316 44.377376 -1.533378 -8.398447 -1.961785 -0.937700 -0.000001 -72.293400 -4.559735 -2.829649 -3.694174 -1.323570 -2.610698 -2.952369 -4.905549 -2.649959 2.623648 11.212130 -19.233450 -11.257274 -0.770495 -0.000821 -0.907062 0.000000 0.000000 0.000000 2.493603 22.724828 1.621635 -52.680722 9.164177 -0.194827 -2.525178 -51.722403 -0.030555 3.237856 10.143872 0.303957 -0.181080 0.013316 -0.000000 0.000000 0.000000 0.000000 0.000000 0.000000 0.000000 8.545448 -13.665855 -1.292769 37.573961 5.817213 -10.519025 179.908323 89.287155 -179.998458 0.935234 5.206496 0.048591 -0.055358 -0.391651 0.000000 0.000000 0.000000 0.000000 0.000000 0.000000 0.000000 
2.838494 17.059249 3.674967 -11.177413 -82.142842 12.842992 -10.871956 2.049330 2.941605 -6.086254 11.832872 -23.827160 -1.947378 0.059753 18.806504 0.684947 3.948953 -3.027373 0.358100 0.000000 -36.716300 10.550935 -1.441354 -1.636371 -0.927147 -27.083867 -22.054284 1.002090 -2.427629 41.640852 -1.436824 -7.770126 -2.419072 -0.827500 0.000000 -72.584200 -4.617059 -2.879148 -3.943486 -1.357778 -2.662827 -2.998752 -5.025427 -2.700497 2.609556 11.348665 -19.492122 -11.222793 -0.757072 -0.000426 -0.894722 0.000000 0.000000 0.000000 2.677896 22.492090 1.617502 -51.455252 8.774536 -0.398054 -2.419176 -53.072353 -0.031102 3.129103 10.270456 0.297893 -0.181412 0.016919 -0.000000 0.000000 0.000000 0.000000 0.000000 0.000000 0.000000 8.527194 -13.865324 -1.376369 39.009709 4.568227 -10.411309 179.885177 88.174052 -179.997606 1.026446 5.291639 0.053922 -0.055009 -0.394013 0.000000 0.000000 0.000000 0.000000 0.000000 0.000000 0.000000 
2.759056 17.087722 3.651838 -11.006399 -81.595485 12.775327 -10.863102 2.111722 3.077355 -5.870782 11.526483 -23.245870 -1.942361 -0.009596 17.775902 0.660386 3.869745 -2.611337 0.390699 -0.000000 -37.150001 10.514378 -1.506724 -1.510687 -0.674415 -26.990152 -21.276504 1.192618 -2.208914 38.881756 -1.365790 -7.316303 -2.692996 -0.766200 -0.000000 -72.768200 -4.687094 -2.919181 -4.201778 -1.394590 -2.704593 -3.045923 -5.144925 -2.740865 2.600360 11.477643 -19.752507 -11.194086 -0.740567 0.000314 -0.884170 0.000000 0.000000 0.000000 2.835689 22.305700 1.614390 -50.288971 8.398639 -0.760829 -2.310731 -54.424635 -0.031647 2.992936 10.425547 0.289926 -0.181267 0.020635 -0.000000 0.000000 0.000000 0.000000 0.000000 0.000000 0.000000 8.489503 -14.056062 -1.459861 40.470575 3.295106 -10.363767 179.860222 87.108396 -179.996864 1.136455 5.391720 0.060553 -0.055359 -0.396939 0.000000 0.000000 0.000000 0.000000 0.000000 0.000000 0.000000 
2.680270 17.113790 3.626966 -10.752281 -81.088907 12.614047 -10.851593 2.175337 3.205047 -5.668851 11.241855 -22.662440 -1.937843 -0.075950 16.762124 0.637326 3.806710 -2.186142 0.424201 0.000000 -37.529100 10.486790 -1.572586 -1.374521 -0.454005 -26.828559 -20.438221 1.351968 -1.986470 36.146029 -1.319796 -7.044256 -2.759608 -0.752300 0.000001 -72.870600 -4.777647 -2.951131 -4.462908 -1.435565 -2.736817 -3.092525 -5.264070 -2.771866 2.596138 11.600465 -20.009909 -11.172262 -0.721353 0.001401 -0.875806 0.000000 0.000000 0.000000 2.963465 22.176974 1.611596 -49.170692 8.039801 -1.247564 -2.198295 -55.801318 -0.032170 2.838526 10.605548 0.280553 -0.180672 0.024369 -0.000000 0.000000 0.000000 0.000000 0.000000 0.000000 0.000000 8.436619 -14.233749 -1.542421 41.948410 2.016821 -10.381810 179.834341 86.094756 -179.996056 1.264547 5.501509 0.068383 -0.056419 -0.400359 -0.000000 0.000000 0.000000 0.000000 0.000000 0.000000 0.000000 
2.602478 17.136940 3.600213 -10.379745 -80.633372 12.317502 -10.836253 2.240809 3.320966 -5.491312 10.989382 -22.083114 -1.935782 -0.137302 15.792928 0.615350 3.752230 -1.771204 0.456300 0.000000 -37.836400 10.470688 -1.636775 -1.232227 -0.276351 -26.610733 -19.560473 1.475431 -1.767155 33.490901 -1.296238 -6.945275 -2.612026 -0.783500 0.000001 -72.906600 -4.897346 -2.976987 -4.718855 -1.482428 -2.760859 -3.136969 -5.382831 -2.794844 2.596337 11.718390 -20.258742 -11.158064 -0.699739 0.002836 -0.869932 0.000000 0.000000 0.000000 3.057856 22.115861 1.608524 -48.085544 7.698323 -1.816244 -2.080390 -57.223043 -0.032661 2.675537 10.807559 0.270276 -0.179660 0.028017 -0.000000 0.000000 0.000000 0.000000 0.000000 0.000000 0.000000 8.372006 -14.393522 -1.623559 43.435882 0.751283 -10.468004 179.808295 85.135791 -179.995203 1.405603 5.615283 0.077313 -0.058111 -0.404196 -0.000000 0.000000 0.000000 0.000000 0.000000 0.000000 0.000000 
2.525893 17.156767 3.571536 -9.882945 -80.235979 11.878054 -10.816789 2.307975 3.423475 -5.342066 10.770676 -21.513027 -1.936720 -0.192300 14.892372 0.595173 3.706899 -1.385619 0.485700 -0.000001 -38.086900 10.466819 -1.698590 -1.087567 -0.142282 -26.343000 -18.663685 1.560863 -1.557394 30.967965 -1.293788 -7.013791 -2.263269 -0.858701 0.000000 -72.882100 -5.049376 -2.998269 -4.963962 -1.535881 -2.778015 -3.178120 -5.501390 -2.811058 2.600655 11.832698 -20.492627 -11.151803 -0.676383 0.004578 -0.866699 0.000000 0.000000 0.000000 3.118064 22.129329 1.604527 -47.021867 7.369980 -2.428642 -1.956369 -58.700938 -0.033101 2.513217 11.024336 0.259895 -0.178281 0.031532 -0.000000 0.000000 0.000000 0.000000 0.000000 0.000000 0.000000 8.299714 -14.530054 -1.702801 44.925117 -0.486311 -10.623883 179.782744 84.232024 -179.994333 1.553248 5.727145 0.086842 -0.060312 -0.408347 -0.000000 0.000000 0.000000 0.000000 0.000000 0.000000 0.000000 
